<?xml version="1.0" encoding="UTF-8"?>
<svg xmlns="http://www.w3.org/2000/svg" width="168.75mm" height="37.5mm" viewBox="0 0 478.35 106.29">
    <defs>
        <style>
            .cls-1 {
            fill: #231f20;
            }

            .cls-1, .cls-2 {
            stroke-width: 0px;
            }

            .cls-2 {
            fill: #fff;
            }
        </style>
    </defs>
    <g>
        <g>
            <path class="cls-2"
                  d="m337.42,17.77c.39,0,10.03,0,13.03,0v54.89l.02-.12v.61c-.01,3.6,1.76,5.45,5.39,5.63.04,0,14.6,0,18.25,0v6.21c0,.7-.38,1.19-1.16,1.19h-29.54c-9.12,0-10.48-5.03-10.48-9.59V21.53c0-2.6.99-3.83,4.06-3.76h.41Z"/>
            <path class="cls-2"
                  d="m303.16,17.77h13.26v64.37s0,.44,0,.44c0,2.89-1.23,3.61-3.68,3.61h-13.86V21.35c.1-2.22.88-3.64,3.92-3.57h-.19.53Z"/>
            <path class="cls-2"
                  d="m26.57,27.67v-.32c0-2.77-.14-5.73,1.6-7.58,1.55-1.64,4.1-2,7.3-2h37.34v6.58c-.02.46-.21.89-.83.89,0,0-22.62-.01-22.62-.01-3.25.17-4.39,1.32-4.56,4.52,0,.05,0,17.37,0,17.37h26.56v6.76s0,.2,0,.2c0,.59-.39.88-.99.88-.02,0-25.58,0-25.58,0v26.76-.12s0,.41,0,.41v.52c-.06,2.66-1.38,3.72-4.29,3.67h-13.93V27.67Z"/>
            <path class="cls-2"
                  d="m86.52,17.77c.28,0,10.23,0,13.2,0v52.14c0,4.47.63,7.61,3.78,9.43,4.21,2.44,11.96,2.47,16.25.07,2.94-1.64,4.03-4.12,4.05-9.16V21.18c.09-2.27.84-3.47,3.9-3.41,0,0,10.28,0,13.24,0,0,1.59,0,46.32,0,46.32,0,3.09,0,10.32-2.38,14.3-2.48,4.13-6.23,6.86-11.49,8.34-8.7,2.44-21.94,2.41-30.15-.05-9.82-2.96-14.4-8.77-14.42-18.3V22.19s-.04.23-.04.23l.04-.83v-.17c.02-1.31.34-2.45.81-2.9.5-.48,1.41-.78,2.94-.75h.28Z"/>
            <path class="cls-2"
                  d="m431.51,17.77c-3.46,0-5.35,1.56-6.21,4.7l-11.16,47.17h-.31s-10.2-46.17-11.53-51.88c-3.06,0-15.76,0-15.76,0-3.04,0-4,1.56-4,3.98v64.43h6.65c1.07,0,1.52-.54,1.52-1.63V30.54h1.06l.68,2.56c.13.5,12.05,47.2,13.57,53.09h9.33c3.52,0,4.82-1.44,5.69-4.92l12.8-50.72h1.04c0,11.28,0,54.25,0,55.64,2.95,0,12.46-.02,12.46-.02,3.06,0,4.45-1.17,4.45-4.18V17.77c-3.96,0-20.26,0-20.26,0Z"/>
            <path class="cls-2"
                  d="m251.18,17.75c-3.2,0-5.75.36-7.3,2-1.74,1.84-1.6,4.81-1.6,7.57v17.52c0,.31-.15.49-.32.66l-11.99,9.44h12.31v31.23h13.93c2.92.05,4.24-1,4.29-3.66v-.93s0,.12,0,.12v-26.75h4.61s.04,0,.06,0h20.92c.59,0,.98-.28.98-.87v-6.97h-26.56v-17.36c.17-3.2,1.31-4.35,4.56-4.52,0,0,22.62,0,22.62.01.62,0,.82-.44.83-.9v-6.57h-37.34Z"/>
            <g>
                <path class="cls-2"
                      d="m224.29,54.94h-17.53v31.24h13.86c2.45,0,3.68-.72,3.68-3.61,0,0,0-.42,0-.44v-27.19Z"/>
                <path class="cls-2"
                      d="m223.27,41.6c.61-.5.97-.88,1.02-1.94v-21.89h-13.8s.19,0,.19,0c-3.04-.07-3.82,1.35-3.92,3.57v33.18l16.51-12.93Z"/>
            </g>
            <path class="cls-2"
                  d="m163.19,80.77c7.61-1.08,10.14-5.6,10.14-12.27V21.48c0-2.81,1.61-3.74,3.49-3.71h14.05v44.46c0,10.94-2.3,16.46-8.78,21.12-3.37,2.42-9.27,5.18-22.04,5.18-7.31,0-10.56-.41-11-.52-.61-.14-.87-.52-.87-1.01v-5.78c3,.08,9.88.3,15.02-.43Z"/>
        </g>
    </g>
    <g>
        <path class="cls-2"
              d="m350.46,17.78v55.38c0,3.6,1.78,5.45,5.41,5.63.04,0,18.25,0,18.25,0v6.21c0,.7-.37,1.18-1.15,1.18h-29.54c-9.12,0-10.48-5.03-10.48-9.59V21.55c0-2.6.99-3.83,4.06-3.76h13.46Z"/>
        <path class="cls-2"
              d="m316.42,17.78v64.81c0,2.88-1.22,3.61-3.67,3.61h-13.86V21.36c0-2.14.81-3.58,3.92-3.58h13.61Z"/>
        <path class="cls-2"
              d="m26.57,27.21c0-5.21,0-9.44,8.58-9.44h37.66v6.58c0,.47-.22.89-.88.89,0,0-22.57-.01-22.57-.01-3.03,0-4.56,1.46-4.56,4.51,0,.05,0,17.37,0,17.37h26.56v6.9c0,.61-.38.93-.98.93-.02,0-25.58,0-25.58,0v27.56c-.06,2.66-1.38,3.72-4.29,3.67h-13.93V27.21Z"/>
        <path class="cls-2"
              d="m100.01,17.77v52.15c0,4.47.63,7.61,3.77,9.43,4.21,2.44,11.34,2.47,15.64.07,2.94-1.64,4.06-4.27,4.06-9.48V21.25c0-2.19.83-3.48,3.9-3.47h13.62v50.6c0,11.76-7.4,16.58-13.94,18.36-8.71,2.38-21.94,2.42-30.15-.05-9.82-2.96-14.41-8.77-14.42-18.31V21.29c0-2.28.81-3.51,3.42-3.51h14.09Z"/>
        <path class="cls-2"
              d="m431.51,17.78c-3.46,0-5.43,1.61-6.21,4.7l-11.16,47.17h-.31s-11.52-51.88-11.52-51.88h-15.76c-3.05,0-4,1.56-4,3.98v64.43h6.65c1.07,0,1.51-.53,1.51-1.62V30.55h1.06l14.25,55.64h9.33c3.52,0,4.82-1.44,5.69-4.92l12.8-50.72h1.04v55.64s12.45-.01,12.45-.01c3.06,0,4.45-1.17,4.45-4.18V17.78h-20.26Z"/>
        <g>
            <path class="cls-2" d="m224.29,54.96h-17.53v31.24h13.86c2.45,0,3.68-.72,3.68-3.61,0,0,0-13.36,0-27.63Z"/>
            <path class="cls-2"
                  d="m223.27,41.61c.61-.5.97-.87,1.02-1.95v-21.88h-13.61c-3.06,0-3.92,1.5-3.92,3.63v33.12l16.51-12.93Z"/>
        </g>
        <path class="cls-2"
              d="m163.19,80.78c7.61-1.08,10.14-5.6,10.14-12.27V21.49c0-2.81,1.53-3.72,3.49-3.72h14.04v44.46c0,10.94-2.3,16.46-8.78,21.12-3.37,2.42-9.26,5.18-22.04,5.18-7.31,0-10.56-.41-11-.52-.62-.14-.87-.52-.87-1.06v-5.74c3,.08,9.88.29,15.02-.43Z"/>
        <path class="cls-2"
              d="m250.85,17.77c-8.57,0-8.57,4.22-8.57,9.44v17.63c0,.36-.16.51-.32.67l-11.99,9.44h12.31v31.23h13.93c2.92.05,4.24-1,4.29-3.67v-27.56s25.56,0,25.58,0c.59,0,.98-.33.98-.93v-6.9h-26.56s0-17.32,0-17.37c0-3.06,1.53-4.51,4.56-4.51,0,0,22.57,0,22.57.01.65,0,.88-.42.88-.89v-6.58h-37.67Z"/>
    </g>
</svg>
