<svg width="20" height="20" viewBox="0 0 20 20" fill="none" xmlns="http://www.w3.org/2000/svg">
<g id="Outline/Dashboard - 1" clip-path="url(#clip0_983_12424)">
<g id="Vector">
<path d="M18.3327 7.10008V3.31675C18.3327 2.14175 17.7994 1.66675 16.4744 1.66675H13.1077C11.7827 1.66675 11.2493 2.14175 11.2493 3.31675V7.09175C11.2493 8.27508 11.7827 8.74175 13.1077 8.74175H16.4744C17.7994 8.75008 18.3327 8.27508 18.3327 7.10008Z" stroke="#506479" stroke-width="1.5" stroke-linecap="round" stroke-linejoin="round"/>
<path d="M18.3327 16.4751V13.1084C18.3327 11.7834 17.7994 11.2501 16.4744 11.2501H13.1077C11.7827 11.2501 11.2493 11.7834 11.2493 13.1084V16.4751C11.2493 17.8001 11.7827 18.3334 13.1077 18.3334H16.4744C17.7994 18.3334 18.3327 17.8001 18.3327 16.4751Z" stroke="#506479" stroke-width="1.5" stroke-linecap="round" stroke-linejoin="round"/>
<path d="M8.74935 7.10008V3.31675C8.74935 2.14175 8.21602 1.66675 6.89102 1.66675H3.52435C2.19935 1.66675 1.66602 2.14175 1.66602 3.31675V7.09175C1.66602 8.27508 2.19935 8.74175 3.52435 8.74175H6.89102C8.21602 8.75008 8.74935 8.27508 8.74935 7.10008Z" stroke="#506479" stroke-width="1.5" stroke-linecap="round" stroke-linejoin="round"/>
<path d="M8.74935 16.4751V13.1084C8.74935 11.7834 8.21602 11.2501 6.89102 11.2501H3.52435C2.19935 11.2501 1.66602 11.7834 1.66602 13.1084V16.4751C1.66602 17.8001 2.19935 18.3334 3.52435 18.3334H6.89102C8.21602 18.3334 8.74935 17.8001 8.74935 16.4751Z" stroke="#506479" stroke-width="1.5" stroke-linecap="round" stroke-linejoin="round"/>
</g>
</g>
<defs>
<clipPath id="clip0_983_12424">
<rect width="20" height="20" fill="white"/>
</clipPath>
</defs>
</svg>
