<svg width="20" height="20" viewBox="0 0 20 20" fill="none" xmlns="http://www.w3.org/2000/svg">
<g id="arrow-dropdown">
<path id="Vector" d="M9.5484 13.2751L2.9109 6.30887C2.80009 6.19263 2.73828 6.03821 2.73828 5.87762C2.73828 5.71703 2.80009 5.5626 2.9109 5.44637L2.9184 5.43887C2.97212 5.38233 3.03677 5.3373 3.10844 5.30653C3.18011 5.27577 3.25728 5.2599 3.33528 5.2599C3.41327 5.2599 3.49044 5.27577 3.56211 5.30653C3.63378 5.3373 3.69843 5.38233 3.75215 5.43887L10.0022 11.9989L16.2496 5.43887C16.3034 5.38233 16.368 5.3373 16.4397 5.30653C16.5114 5.27577 16.5885 5.2599 16.6665 5.2599C16.7445 5.2599 16.8217 5.27577 16.8934 5.30653C16.965 5.3373 17.0297 5.38233 17.0834 5.43887L17.0909 5.44637C17.2017 5.5626 17.2635 5.71703 17.2635 5.87762C17.2635 6.03821 17.2017 6.19263 17.0909 6.30887L10.4534 13.2751C10.395 13.3364 10.3248 13.3852 10.247 13.4185C10.1693 13.4518 10.0855 13.469 10.0009 13.469C9.91628 13.469 9.83254 13.4518 9.75476 13.4185C9.67698 13.3852 9.60677 13.3364 9.5484 13.2751Z" fill="#506479"/>
</g>
</svg>
