<svg width="20" height="21" viewBox="0 0 20 21" fill="none" xmlns="http://www.w3.org/2000/svg">
<g id="eye">
<path id="Vector" d="M10.0009 14.1083C8.00924 14.1083 6.39258 12.4916 6.39258 10.4999C6.39258 8.50827 8.00924 6.8916 10.0009 6.8916C11.9926 6.8916 13.6092 8.50827 13.6092 10.4999C13.6092 12.4916 11.9926 14.1083 10.0009 14.1083ZM10.0009 8.1416C8.70091 8.1416 7.64258 9.19993 7.64258 10.4999C7.64258 11.7999 8.70091 12.8583 10.0009 12.8583C11.3009 12.8583 12.3592 11.7999 12.3592 10.4999C12.3592 9.19993 11.3009 8.1416 10.0009 8.1416Z" fill="#858585"/>
<path id="Vector_2" d="M10.0004 18.0167C6.86706 18.0167 3.90872 16.1834 1.87539 13.0001C0.992057 11.6251 0.992057 9.3834 1.87539 8.00007C3.91706 4.81673 6.87539 2.9834 10.0004 2.9834C13.1254 2.9834 16.0837 4.81673 18.1171 8.00007C19.0004 9.37507 19.0004 11.6167 18.1171 13.0001C16.0837 16.1834 13.1254 18.0167 10.0004 18.0167ZM10.0004 4.2334C7.30872 4.2334 4.73372 5.85007 2.93372 8.67507C2.30872 9.65007 2.30872 11.3501 2.93372 12.3251C4.73372 15.1501 7.30872 16.7667 10.0004 16.7667C12.6921 16.7667 15.2671 15.1501 17.0671 12.3251C17.6921 11.3501 17.6921 9.65007 17.0671 8.67507C15.2671 5.85007 12.6921 4.2334 10.0004 4.2334Z" fill="#506479"/>
</g>
</svg>
