<svg width="17" height="16" viewBox="0 0 17 16" fill="none" xmlns="http://www.w3.org/2000/svg">
<path d="M14.5 3.5H2.5C2.22667 3.5 2 3.27333 2 3C2 2.72667 2.22667 2.5 2.5 2.5H14.5C14.7733 2.5 15 2.72667 15 3C15 3.27333 14.7733 3.5 14.5 3.5Z" fill="white"/>
<path d="M14.5 6.83301H2.5C2.22667 6.83301 2 6.60634 2 6.33301C2 6.05967 2.22667 5.83301 2.5 5.83301H14.5C14.7733 5.83301 15 6.05967 15 6.33301C15 6.60634 14.7733 6.83301 14.5 6.83301Z" fill="white"/>
<path d="M14.5 10.167H2.5C2.22667 10.167 2 9.94033 2 9.66699C2 9.39366 2.22667 9.16699 2.5 9.16699H14.5C14.7733 9.16699 15 9.39366 15 9.66699C15 9.94033 14.7733 10.167 14.5 10.167Z" fill="white"/>
<path d="M14.5 13.5H2.5C2.22667 13.5 2 13.2733 2 13C2 12.7267 2.22667 12.5 2.5 12.5H14.5C14.7733 12.5 15 12.7267 15 13C15 13.2733 14.7733 13.5 14.5 13.5Z" fill="white"/>
</svg>
