<svg width="20" height="20" viewBox="0 0 20 20" fill="none" xmlns="http://www.w3.org/2000/svg">
<path d="M7.08268 15.8333H6.66602C3.33268 15.8333 1.66602 15 1.66602 10.8333V6.66663C1.66602 3.33329 3.33268 1.66663 6.66602 1.66663H13.3327C16.666 1.66663 18.3327 3.33329 18.3327 6.66663V10.8333C18.3327 14.1666 16.666 15.8333 13.3327 15.8333H12.916C12.6577 15.8333 12.4077 15.9583 12.2493 16.1666L10.9993 17.8333C10.4493 18.5666 9.54935 18.5666 8.99935 17.8333L7.74935 16.1666C7.61602 15.9833 7.30768 15.8333 7.08268 15.8333Z" stroke="#506479" stroke-width="1.5" stroke-miterlimit="10" stroke-linecap="round" stroke-linejoin="round"/>
<path d="M5.83398 6.66663H14.1673" stroke="#506479" stroke-width="1.5" stroke-linecap="round" stroke-linejoin="round"/>
<path d="M5.83398 10.8334H10.834" stroke="#506479" stroke-width="1.5" stroke-linecap="round" stroke-linejoin="round"/>
</svg>
