<svg width="20" height="20" viewBox="0 0 20 20" fill="none" xmlns="http://www.w3.org/2000/svg">
<path d="M6.04102 5.83341H13.9577V4.16675C13.9577 2.50008 13.3327 1.66675 11.4577 1.66675H8.54102C6.66602 1.66675 6.04102 2.50008 6.04102 4.16675V5.83341Z" stroke="#506479" stroke-width="1.5" stroke-miterlimit="10" stroke-linecap="round" stroke-linejoin="round"/>
<path d="M13.3327 12.5V15.8333C13.3327 17.5 12.4993 18.3333 10.8327 18.3333H9.16602C7.49935 18.3333 6.66602 17.5 6.66602 15.8333V12.5H13.3327Z" stroke="#506479" stroke-width="1.5" stroke-miterlimit="10" stroke-linecap="round" stroke-linejoin="round"/>
<path d="M17.5 8.33325V12.4999C17.5 14.1666 16.6667 14.9999 15 14.9999H13.3333V12.4999H6.66667V14.9999H5C3.33333 14.9999 2.5 14.1666 2.5 12.4999V8.33325C2.5 6.66659 3.33333 5.83325 5 5.83325H15C16.6667 5.83325 17.5 6.66659 17.5 8.33325Z" stroke="#506479" stroke-width="1.5" stroke-miterlimit="10" stroke-linecap="round" stroke-linejoin="round"/>
<path d="M14.1673 12.5H13.159H5.83398" stroke="#506479" stroke-width="1.5" stroke-miterlimit="10" stroke-linecap="round" stroke-linejoin="round"/>
<path d="M5.83398 9.16675H8.33398" stroke="#506479" stroke-width="1.5" stroke-miterlimit="10" stroke-linecap="round" stroke-linejoin="round"/>
</svg>
