<svg width="20" height="20" viewBox="0 0 20 20" fill="none" xmlns="http://www.w3.org/2000/svg">
<g id="Outline/Re-print">
<path id="Vector" d="M9.39361 3.27738C8.83232 3.10964 8.21297 2.99996 7.5291 2.99996C4.43877 2.99996 1.93555 5.50319 1.93555 8.59351C1.93555 11.6903 3.22587 13.2258 4.51619 13.8709M8.32909 1.29028L10.1936 3.43222L8.01942 5.01932M14.8388 14.1935V16.7742C14.8388 18.0645 14.1936 18.7096 12.9033 18.7096H11.613C10.3226 18.7096 9.67748 18.0645 9.67748 16.7742V14.1935M14.8388 14.1935H9.67748M14.8388 14.1935V16.129H16.1291C17.4194 16.129 18.0646 15.4838 18.0646 14.1935V10.9677C18.0646 9.67738 17.4194 9.03222 16.1291 9.03222H8.38716C7.09684 9.03222 6.45168 9.67738 6.45168 10.9677V14.1935C6.45168 15.4838 7.09684 16.129 8.38716 16.129H9.67748V14.1935M15.4839 14.1935H9.03232M9.03232 11.6129H10.9678M9.19361 9.03222H15.3226V7.7419C15.3226 6.45157 14.8388 5.80641 13.3872 5.80641H11.1291C9.67748 5.80641 9.19361 6.45157 9.19361 7.7419V9.03222Z" stroke="#506479" stroke-miterlimit="10" stroke-linecap="round" stroke-linejoin="round"/>
</g>
</svg>
