<svg width="24" height="24" viewBox="0 0 24 24" fill="none" xmlns="http://www.w3.org/2000/svg">
<mask id="path-1-inside-1_958_10498" fill="white">
<path d="M9.57493 15.124C9.63256 15.0807 9.69959 15.0475 9.77218 15.0265C9.84476 15.0054 9.92148 14.9968 9.99795 15.0011C10.0744 15.0055 10.1491 15.0228 10.2178 15.0519C10.2865 15.0811 10.3478 15.1215 10.3982 15.171L11.4163 16.169L11.4163 13.5C11.4163 13.3674 11.4778 13.2402 11.5871 13.1464C11.6965 13.0527 11.8448 13 11.9994 13C12.1541 13 12.3024 13.0527 12.4117 13.1464C12.5211 13.2402 12.5825 13.3674 12.5825 13.5L12.5825 16.17L13.6017 15.17C13.7038 15.0701 13.848 15.0091 14.0025 15.0004C14.157 14.9917 14.3092 15.036 14.4257 15.1235C14.5421 15.211 14.6132 15.3346 14.6234 15.4671C14.6336 15.5996 14.5819 15.7301 14.4799 15.83L12.4391 17.83C12.3843 17.8837 12.3168 17.9267 12.2411 17.9562C12.1654 17.9857 12.0832 18.001 12 18.001C11.9168 18.001 11.8346 17.9857 11.7589 17.9562C11.6832 17.9267 11.6157 17.8837 11.5609 17.83L9.52012 15.83C9.46961 15.7806 9.43096 15.7231 9.40638 15.6609C9.38179 15.5986 9.37176 15.5328 9.37685 15.4673C9.38194 15.4017 9.40205 15.3376 9.43604 15.2787C9.47003 15.2198 9.51722 15.1672 9.57493 15.124ZM12.5837 7.831L13.6017 8.829C13.7038 8.92806 13.8474 8.98846 14.0012 8.997C14.155 9.00553 14.3064 8.96151 14.4225 8.87455C14.5386 8.78759 14.6097 8.66476 14.6205 8.53293C14.6312 8.40109 14.5807 8.27097 14.4799 8.171L12.4391 6.171C12.3843 6.11729 12.3168 6.07425 12.2411 6.04476C12.1654 6.01527 12.0832 6.00001 12 6.00001C11.9168 6.00001 11.8346 6.01527 11.7589 6.04476C11.6832 6.07425 11.6157 6.11729 11.5609 6.171L9.52012 8.171C9.41931 8.27097 9.36875 8.40109 9.37951 8.53293C9.39026 8.66476 9.46144 8.78759 9.5775 8.87455C9.69355 8.96151 9.84504 9.00553 9.99883 8.997C10.1526 8.98846 10.2962 8.92806 10.3982 8.829L11.4163 7.831L11.4163 10.5C11.4163 10.6326 11.4778 10.7598 11.5871 10.8536C11.6965 10.9473 11.8448 11 11.9994 11C12.1541 11 12.3024 10.9473 12.4117 10.8536C12.5211 10.7598 12.5825 10.6326 12.5825 10.5L12.5837 7.831ZM7.33236 20C6.71378 20 6.12054 19.7893 5.68313 19.4142C5.24573 19.0391 5 18.5304 5 18L5 6C5 5.46957 5.24573 4.96086 5.68313 4.58579C6.12053 4.21071 6.71378 4 7.33236 4L16.6676 4C17.2862 4 17.8795 4.21071 18.3169 4.58579C18.7543 4.96086 19 5.46957 19 6L19 18C19 18.5304 18.7543 19.0391 18.3169 19.4142C17.8795 19.7893 17.2862 20 16.6676 20L7.33236 20ZM6.16618 18C6.16618 18.2652 6.28905 18.5196 6.50775 18.7071C6.72645 18.8946 7.02307 19 7.33236 19L16.6676 19C16.9769 19 17.2736 18.8946 17.4923 18.7071C17.711 18.5196 17.8338 18.2652 17.8338 18L17.8338 6C17.8338 5.73478 17.711 5.48043 17.4923 5.29289C17.2736 5.10536 16.9769 5 16.6676 5L7.33236 5C7.02307 5 6.72645 5.10536 6.50775 5.29289C6.28905 5.48043 6.16618 5.73478 6.16618 6L6.16618 18Z"/>
</mask>
<path d="M9.57493 15.124C9.63256 15.0807 9.69959 15.0475 9.77218 15.0265C9.84476 15.0054 9.92148 14.9968 9.99795 15.0011C10.0744 15.0055 10.1491 15.0228 10.2178 15.0519C10.2865 15.0811 10.3478 15.1215 10.3982 15.171L11.4163 16.169L11.4163 13.5C11.4163 13.3674 11.4778 13.2402 11.5871 13.1464C11.6965 13.0527 11.8448 13 11.9994 13C12.1541 13 12.3024 13.0527 12.4117 13.1464C12.5211 13.2402 12.5825 13.3674 12.5825 13.5L12.5825 16.17L13.6017 15.17C13.7038 15.0701 13.848 15.0091 14.0025 15.0004C14.157 14.9917 14.3092 15.036 14.4257 15.1235C14.5421 15.211 14.6132 15.3346 14.6234 15.4671C14.6336 15.5996 14.5819 15.7301 14.4799 15.83L12.4391 17.83C12.3843 17.8837 12.3168 17.9267 12.2411 17.9562C12.1654 17.9857 12.0832 18.001 12 18.001C11.9168 18.001 11.8346 17.9857 11.7589 17.9562C11.6832 17.9267 11.6157 17.8837 11.5609 17.83L9.52012 15.83C9.46961 15.7806 9.43096 15.7231 9.40638 15.6609C9.38179 15.5986 9.37176 15.5328 9.37685 15.4673C9.38194 15.4017 9.40205 15.3376 9.43604 15.2787C9.47003 15.2198 9.51722 15.1672 9.57493 15.124ZM12.5837 7.831L13.6017 8.829C13.7038 8.92806 13.8474 8.98846 14.0012 8.997C14.155 9.00553 14.3064 8.96151 14.4225 8.87455C14.5386 8.78759 14.6097 8.66476 14.6205 8.53293C14.6312 8.40109 14.5807 8.27097 14.4799 8.171L12.4391 6.171C12.3843 6.11729 12.3168 6.07425 12.2411 6.04476C12.1654 6.01527 12.0832 6.00001 12 6.00001C11.9168 6.00001 11.8346 6.01527 11.7589 6.04476C11.6832 6.07425 11.6157 6.11729 11.5609 6.171L9.52012 8.171C9.41931 8.27097 9.36875 8.40109 9.37951 8.53293C9.39026 8.66476 9.46144 8.78759 9.5775 8.87455C9.69355 8.96151 9.84504 9.00553 9.99883 8.997C10.1526 8.98846 10.2962 8.92806 10.3982 8.829L11.4163 7.831L11.4163 10.5C11.4163 10.6326 11.4778 10.7598 11.5871 10.8536C11.6965 10.9473 11.8448 11 11.9994 11C12.1541 11 12.3024 10.9473 12.4117 10.8536C12.5211 10.7598 12.5825 10.6326 12.5825 10.5L12.5837 7.831ZM7.33236 20C6.71378 20 6.12054 19.7893 5.68313 19.4142C5.24573 19.0391 5 18.5304 5 18L5 6C5 5.46957 5.24573 4.96086 5.68313 4.58579C6.12053 4.21071 6.71378 4 7.33236 4L16.6676 4C17.2862 4 17.8795 4.21071 18.3169 4.58579C18.7543 4.96086 19 5.46957 19 6L19 18C19 18.5304 18.7543 19.0391 18.3169 19.4142C17.8795 19.7893 17.2862 20 16.6676 20L7.33236 20ZM6.16618 18C6.16618 18.2652 6.28905 18.5196 6.50775 18.7071C6.72645 18.8946 7.02307 19 7.33236 19L16.6676 19C16.9769 19 17.2736 18.8946 17.4923 18.7071C17.711 18.5196 17.8338 18.2652 17.8338 18L17.8338 6C17.8338 5.73478 17.711 5.48043 17.4923 5.29289C17.2736 5.10536 16.9769 5 16.6676 5L7.33236 5C7.02307 5 6.72645 5.10536 6.50775 5.29289C6.28905 5.48043 6.16618 5.73478 6.16618 6L6.16618 18Z" fill="#506479"/>
<path d="M9.57493 15.124L10.1747 15.9242L10.1757 15.9234L9.57493 15.124ZM10.3982 15.171L9.69792 15.8848L9.69822 15.8851L10.3982 15.171ZM11.4163 16.169L10.7163 16.8831L12.4163 18.5496L12.4163 16.169L11.4163 16.169ZM12.5825 16.17L11.5825 16.17L11.5825 18.552L13.2828 16.8838L12.5825 16.17ZM13.6017 15.17L12.9024 14.4552L12.9014 14.4562L13.6017 15.17ZM14.4799 15.83L13.7806 15.1152L13.78 15.1158L14.4799 15.83ZM12.4391 17.83L11.7391 17.1158L11.7387 17.1162L12.4391 17.83ZM12 18.001L12 19.001L12 18.001ZM11.5609 17.83L12.2613 17.1162L12.2609 17.1158L11.5609 17.83ZM9.52012 15.83L10.22 15.1158L10.2195 15.1153L9.52012 15.83ZM12.5837 7.831L13.2837 7.11689L11.5847 5.4514L11.5837 7.83056L12.5837 7.831ZM13.6017 8.829L12.9017 9.54312L12.9051 9.54641L13.6017 8.829ZM14.4799 8.171L15.184 7.46092L15.1798 7.45679L14.4799 8.171ZM12.4391 6.171L11.7387 6.88476L11.7391 6.88521L12.4391 6.171ZM11.5609 6.171L12.2609 6.88521L12.2613 6.88476L11.5609 6.171ZM9.52012 8.171L8.82018 7.45677L8.81598 7.46094L9.52012 8.171ZM10.3982 8.829L11.0949 9.54642L11.0983 9.54311L10.3982 8.829ZM11.4163 7.831L12.4163 7.831L12.4163 5.45038L10.7163 7.11689L11.4163 7.831ZM12.5825 10.5L11.5825 10.4996L11.5825 10.5L12.5825 10.5ZM5 18L4 18L5 18ZM16.6676 20L16.6676 21L16.6676 20ZM7.33236 19L7.33236 20L7.33236 19ZM16.6676 19L16.6676 20L16.6676 19ZM10.1757 15.9234C10.132 15.9563 10.0889 15.9758 10.0511 15.9868L9.49329 14.0661C9.31027 14.1193 9.13313 14.2051 8.97419 14.3245L10.1757 15.9234ZM10.0511 15.9868C10.0132 15.9978 9.97627 16.0015 9.94096 15.9995L10.0549 14.0028C9.8667 13.992 9.67633 14.013 9.49329 14.0661L10.0511 15.9868ZM9.94096 15.9995C9.90567 15.9975 9.86724 15.9895 9.82722 15.9725L10.6084 14.1313C10.431 14.0561 10.2432 14.0135 10.0549 14.0028L9.94096 15.9995ZM9.82722 15.9725C9.78717 15.9555 9.74181 15.9279 9.69792 15.8848L11.0986 14.4572C10.9538 14.3152 10.7858 14.2066 10.6084 14.1313L9.82722 15.9725ZM9.69822 15.8851L10.7163 16.8831L12.1164 15.4549L11.0983 14.4569L9.69822 15.8851ZM12.4163 16.169L12.4163 13.5L10.4163 13.5L10.4163 16.169L12.4163 16.169ZM12.4163 13.5C12.4163 13.6866 12.3286 13.8279 12.2381 13.9056L10.9362 12.3873C10.6269 12.6525 10.4163 13.0482 10.4163 13.5L12.4163 13.5ZM12.2381 13.9056C12.1522 13.9792 12.0646 14 11.9994 14L11.9994 12C11.625 12 11.2407 12.1262 10.9362 12.3873L12.2381 13.9056ZM11.9994 14C11.9343 14 11.8466 13.9792 11.7608 13.9056L13.0627 12.3873C12.7581 12.1262 12.3738 12 11.9994 12L11.9994 14ZM11.7608 13.9056C11.6702 13.8279 11.5825 13.6866 11.5825 13.5L13.5825 13.5C13.5825 13.0482 13.372 12.6525 13.0627 12.3873L11.7608 13.9056ZM11.5825 13.5L11.5825 16.17L13.5825 16.17L13.5825 13.5L11.5825 13.5ZM13.2828 16.8838L14.3021 15.8838L12.9014 14.4562L11.8822 15.4562L13.2828 16.8838ZM14.3011 15.8848C14.2151 15.9689 14.124 15.9952 14.0588 15.9988L13.9461 14.002C13.5719 14.0231 13.1925 14.1714 12.9024 14.4552L14.3011 15.8848ZM14.0588 15.9988C13.9936 16.0025 13.9094 15.9865 13.8248 15.9229L15.0265 14.3241C14.709 14.0855 14.3204 13.9809 13.9461 14.002L14.0588 15.9988ZM13.8248 15.9229C13.7363 15.8563 13.6404 15.7275 13.6263 15.5436L15.6205 15.3906C15.586 14.9418 15.3479 14.5657 15.0265 14.3241L13.8248 15.9229ZM13.6263 15.5436C13.612 15.3572 13.6892 15.2046 13.7806 15.1152L15.1792 16.5448C15.4747 16.2557 15.6551 15.842 15.6205 15.3906L13.6263 15.5436ZM13.78 15.1158L11.7391 17.1158L13.139 18.5442L15.1798 16.5442L13.78 15.1158ZM11.7387 17.1162C11.7862 17.0696 11.8355 17.041 11.8782 17.0244L12.604 18.8881C12.7982 18.8125 12.9824 18.6978 13.1395 18.5438L11.7387 17.1162ZM11.8782 17.0244C11.9209 17.0078 11.962 17.001 12 17.001L12 19.001C12.2044 19.001 12.4099 18.9637 12.604 18.8881L11.8782 17.0244ZM12 17.001C12.038 17.001 12.0791 17.0078 12.1218 17.0244L11.396 18.8881C11.5901 18.9637 11.7956 19.001 12 19.001L12 17.001ZM12.1218 17.0244C12.1645 17.041 12.2138 17.0696 12.2613 17.1162L10.8605 18.5438C11.0176 18.6978 11.2018 18.8125 11.396 18.8881L12.1218 17.0244ZM12.2609 17.1158L10.22 15.1158L8.82019 16.5442L10.861 18.5442L12.2609 17.1158ZM10.2195 15.1153C10.2637 15.1585 10.3065 15.2178 10.3365 15.2935L8.47629 16.0282C8.55537 16.2284 8.67549 16.4026 8.82072 16.5447L10.2195 15.1153ZM10.3365 15.2935C10.3667 15.37 10.3807 15.4561 10.3739 15.5447L8.37985 15.3899C8.36279 15.6096 8.39694 15.8273 8.47629 16.0282L10.3365 15.2935ZM10.3739 15.5447C10.367 15.633 10.3402 15.7127 10.3022 15.7785L8.5699 14.7789C8.46393 14.9626 8.39689 15.1704 8.37985 15.3899L10.3739 15.5447ZM10.3022 15.7785C10.2646 15.8437 10.2185 15.8913 10.1747 15.9242L8.97519 14.3238C8.81593 14.4432 8.6755 14.5959 8.5699 14.7789L10.3022 15.7785ZM11.8836 8.54511L12.9017 9.54311L14.3018 8.11489L13.2837 7.11689L11.8836 8.54511ZM12.9051 9.54641C13.1949 9.82788 13.573 9.97477 13.9458 9.99546L14.0566 7.99854C14.1218 8.00215 14.2126 8.02825 14.2984 8.11159L12.9051 9.54641ZM13.9458 9.99546C14.3186 10.0162 14.7056 9.91203 15.0222 9.67481L13.8229 8.07429C13.9073 8.01099 13.9913 7.99491 14.0566 7.99854L13.9458 9.99546ZM15.0222 9.67481C15.3426 9.43467 15.5807 9.06098 15.6172 8.61422L13.6238 8.45164C13.6387 8.26854 13.7345 8.1405 13.8229 8.07429L15.0222 9.67481ZM15.6172 8.61422C15.6538 8.16468 15.4768 7.75129 15.184 7.46094L13.7757 8.88106C13.6846 8.79064 13.6086 8.63751 13.6238 8.45164L15.6172 8.61422ZM15.1798 7.45679L13.139 5.45679L11.7391 6.88521L13.78 8.88521L15.1798 7.45679ZM13.1395 5.45724C12.9824 5.30315 12.7982 5.18854 12.604 5.11293L11.8782 6.97659C11.8355 6.95997 11.7862 6.93144 11.7387 6.88476L13.1395 5.45724ZM12.604 5.11293C12.4099 5.03732 12.2044 5.00001 12 5.00001L12 7.00001C11.962 7.00001 11.9209 6.99322 11.8782 6.97659L12.604 5.11293ZM12 5.00001C11.7956 5.00001 11.5901 5.03732 11.396 5.11293L12.1218 6.97659C12.0791 6.99322 12.038 7.00001 12 7.00001L12 5.00001ZM11.396 5.11293C11.2018 5.18854 11.0176 5.30315 10.8605 5.45724L12.2613 6.88476C12.2138 6.93144 12.1645 6.95997 12.1218 6.97659L11.396 5.11293ZM10.861 5.45679L8.82019 7.45679L10.22 8.88521L12.2609 6.88521L10.861 5.45679ZM8.81598 7.46094C8.52318 7.75129 8.34615 8.16468 8.38282 8.61422L10.3762 8.45164C10.3914 8.63751 10.3154 8.79064 10.2243 8.88106L8.81598 7.46094ZM8.38282 8.61422C8.41926 9.06098 8.65737 9.43467 8.97785 9.67481L10.1771 8.07429C10.2655 8.1405 10.3613 8.26854 10.3762 8.45164L8.38282 8.61422ZM8.97785 9.67481C9.29443 9.91203 9.68137 10.0162 10.0542 9.99546L9.94342 7.99854C10.0087 7.99491 10.0927 8.01099 10.1771 8.07429L8.97785 9.67481ZM10.0542 9.99546C10.427 9.97478 10.805 9.82788 11.0949 9.54641L9.7016 8.11159C9.78742 8.02825 9.87824 8.00215 9.94342 7.99854L10.0542 9.99546ZM11.0983 9.54311L12.1164 8.54511L10.7163 7.11689L9.69822 8.11489L11.0983 9.54311ZM10.4163 7.831L10.4163 10.5L12.4163 10.5L12.4163 7.831L10.4163 7.831ZM10.4163 10.5C10.4163 10.9518 10.6269 11.3475 10.9362 11.6127L12.2381 10.0944C12.3286 10.1721 12.4163 10.3134 12.4163 10.5L10.4163 10.5ZM10.9362 11.6127C11.2407 11.8738 11.625 12 11.9994 12L11.9994 10C12.0646 10 12.1522 10.0208 12.2381 10.0944L10.9362 11.6127ZM11.9994 12C12.3738 12 12.7581 11.8738 13.0627 11.6127L11.7608 10.0944C11.8466 10.0208 11.9343 10 11.9994 10L11.9994 12ZM13.0627 11.6127C13.372 11.3475 13.5825 10.9518 13.5825 10.5L11.5825 10.5C11.5825 10.3134 11.6702 10.1721 11.7608 10.0944L13.0627 11.6127ZM13.5825 10.5004L13.5837 7.83144L11.5837 7.83056L11.5825 10.4996L13.5825 10.5004ZM7.33236 19C6.93357 19 6.5763 18.8628 6.33408 18.6551L5.03219 20.1733C5.66477 20.7158 6.49399 21 7.33236 21L7.33236 19ZM6.33408 18.6551C6.09661 18.4515 6 18.2113 6 18L4 18C4 18.8496 4.39485 19.6268 5.03219 20.1733L6.33408 18.6551ZM6 18L6 6L4 6L4 18L6 18ZM6 6C6 5.78874 6.09661 5.54854 6.33408 5.34491L5.03218 3.82666C4.39485 4.37318 4 5.15039 4 6L6 6ZM6.33408 5.34491C6.5763 5.1372 6.93357 5 7.33236 5L7.33236 3C6.49399 3 5.66477 3.28423 5.03218 3.82666L6.33408 5.34491ZM7.33236 5L16.6676 5L16.6676 3L7.33236 3L7.33236 5ZM16.6676 5C17.0664 5 17.4237 5.1372 17.6659 5.34491L18.9678 3.82666C18.3352 3.28422 17.506 3 16.6676 3L16.6676 5ZM17.6659 5.34491C17.9034 5.54854 18 5.78874 18 6L20 6C20 5.15039 19.6052 4.37318 18.9678 3.82666L17.6659 5.34491ZM18 6L18 18L20 18L20 6L18 6ZM18 18C18 18.2113 17.9034 18.4515 17.6659 18.6551L18.9678 20.1733C19.6052 19.6268 20 18.8496 20 18L18 18ZM17.6659 18.6551C17.4237 18.8628 17.0664 19 16.6676 19L16.6676 21C17.506 21 18.3352 20.7158 18.9678 20.1733L17.6659 18.6551ZM16.6676 19L7.33236 19L7.33236 21L16.6676 21L16.6676 19ZM5.16618 18C5.16618 18.5844 5.43816 19.1072 5.8568 19.4662L7.15869 17.948C7.14876 17.9395 7.1506 17.9378 7.1554 17.9477C7.16045 17.9582 7.16618 17.9765 7.16618 18L5.16618 18ZM5.8568 19.4662C6.27068 19.8211 6.80328 20 7.33236 20L7.33236 18C7.24286 18 7.18222 17.9682 7.15869 17.948L5.8568 19.4662ZM7.33236 20L16.6676 20L16.6676 18L7.33236 18L7.33236 20ZM16.6676 20C17.1967 20 17.7293 19.8211 18.1432 19.4662L16.8413 17.948C16.8178 17.9682 16.7571 18 16.6676 18L16.6676 20ZM18.1432 19.4662C18.5618 19.1072 18.8338 18.5844 18.8338 18L16.8338 18C16.8338 17.9765 16.8395 17.9582 16.8446 17.9477C16.8494 17.9378 16.8512 17.9395 16.8413 17.948L18.1432 19.4662ZM18.8338 18L18.8338 6L16.8338 6L16.8338 18L18.8338 18ZM18.8338 6C18.8338 5.41561 18.5618 4.89275 18.1432 4.53377L16.8413 6.05201C16.8512 6.06053 16.8494 6.06221 16.8446 6.05228C16.8395 6.04182 16.8338 6.02348 16.8338 6L18.8338 6ZM18.1432 4.53377C17.7293 4.17886 17.1967 4 16.6676 4L16.6676 6C16.7571 6 16.8178 6.03185 16.8413 6.05201L18.1432 4.53377ZM16.6676 4L7.33236 4L7.33236 6L16.6676 6L16.6676 4ZM7.33236 4C6.80328 4 6.27068 4.17887 5.8568 4.53377L7.15869 6.05202C7.18221 6.03185 7.24286 6 7.33236 6L7.33236 4ZM5.8568 4.53377C5.43816 4.89275 5.16618 5.41561 5.16618 6L7.16618 6C7.16618 6.02348 7.16045 6.04182 7.1554 6.05228C7.1506 6.06221 7.14876 6.06054 7.15869 6.05202L5.8568 4.53377ZM5.16618 6L5.16618 18L7.16618 18L7.16618 6L5.16618 6Z" fill="#506479" mask="url(#path-1-inside-1_958_10498)"/>
</svg>
