<svg width="16" height="16" viewBox="0 0 16 16" fill="none" xmlns="http://www.w3.org/2000/svg">
<g id="Outline/Scale-width">
<path id="Vector" d="M4.876 5.57493C4.91931 5.63256 4.95245 5.69959 4.97353 5.77218C4.99461 5.84476 5.00322 5.92148 4.99885 5.99795C4.99449 6.07442 4.97724 6.14913 4.94809 6.21782C4.91895 6.2865 4.87848 6.34782 4.829 6.39825L3.831 7.41633H6.5C6.63261 7.41633 6.75979 7.47776 6.85355 7.58711C6.94732 7.69646 7 7.84477 7 7.99942C7 8.15406 6.94732 8.30237 6.85355 8.41172C6.75979 8.52107 6.63261 8.58251 6.5 8.58251H3.83L4.83 9.60175C4.92985 9.70381 4.99085 9.84796 4.99957 10.0025C5.00829 10.157 4.96402 10.3092 4.8765 10.4257C4.78898 10.5421 4.66537 10.6132 4.53288 10.6234C4.40039 10.6336 4.26985 10.5819 4.17 10.4799L2.17 8.43907C2.1163 8.38434 2.07325 8.31684 2.04376 8.24111C2.01427 8.16538 1.99901 8.08317 1.99901 8C1.99901 7.91683 2.01427 7.83462 2.04376 7.75889C2.07325 7.68316 2.1163 7.61566 2.17 7.56093L4.17 5.52012C4.21942 5.46961 4.2769 5.43096 4.33914 5.40638C4.40139 5.38179 4.46717 5.37176 4.53274 5.37685C4.59831 5.38194 4.66238 5.40205 4.72128 5.43604C4.78018 5.47003 4.83275 5.51722 4.876 5.57493ZM12.169 8.58367L11.171 9.60175C11.0719 9.70376 11.0115 9.84737 11.003 10.0012C10.9945 10.155 11.0385 10.3064 11.1255 10.4225C11.2124 10.5386 11.3352 10.6097 11.4671 10.6205C11.5989 10.6312 11.729 10.5807 11.829 10.4799L13.829 8.43907C13.8827 8.38434 13.9257 8.31684 13.9552 8.24111C13.9847 8.16538 14 8.08317 14 8C14 7.91683 13.9847 7.83462 13.9552 7.75889C13.9257 7.68316 13.8827 7.61566 13.829 7.56093L11.829 5.52012C11.729 5.41931 11.5989 5.36876 11.4671 5.37951C11.3352 5.39026 11.2124 5.46144 11.1255 5.5775C11.0385 5.69355 10.9945 5.84504 11.003 5.99883C11.0115 6.15263 11.0719 6.29624 11.171 6.39825L12.169 7.41633H9.5C9.36739 7.41633 9.24021 7.47776 9.14645 7.58711C9.05268 7.69646 9 7.84477 9 7.99942C9 8.15406 9.05268 8.30237 9.14645 8.41172C9.24021 8.52107 9.36739 8.58251 9.5 8.58251L12.169 8.58367ZM0 3.33236C0 2.71378 0.210714 2.12054 0.585786 1.68313C0.960859 1.24573 1.46957 1 2 1H14C14.5304 1 15.0391 1.24573 15.4142 1.68313C15.7893 2.12054 16 2.71378 16 3.33236V12.6676C16 13.2862 15.7893 13.8795 15.4142 14.3169C15.0391 14.7543 14.5304 15 14 15H2C1.46957 15 0.960859 14.7543 0.585786 14.3169C0.210714 13.8795 0 13.2862 0 12.6676V3.33236ZM2 2.16618C1.73478 2.16618 1.48043 2.28905 1.29289 2.50775C1.10536 2.72645 1 3.02307 1 3.33236V12.6676C1 12.9769 1.10536 13.2736 1.29289 13.4923C1.48043 13.711 1.73478 13.8338 2 13.8338H14C14.2652 13.8338 14.5196 13.711 14.7071 13.4923C14.8946 13.2736 15 12.9769 15 12.6676V3.33236C15 3.02307 14.8946 2.72645 14.7071 2.50775C14.5196 2.28905 14.2652 2.16618 14 2.16618H2Z" fill="white"/>
</g>
</svg>
