<svg width="24" height="24" viewBox="0 0 24 24" fill="none" xmlns="http://www.w3.org/2000/svg">
<g id="Outline/Scale-width">
<g id="Vector">
<mask id="path-1-inside-1_958_11061" fill="white">
<path d="M8.876 9.57493C8.91931 9.63256 8.95245 9.69959 8.97353 9.77218C8.99461 9.84476 9.00322 9.92148 8.99885 9.99795C8.99449 10.0744 8.97724 10.1491 8.94809 10.2178C8.91895 10.2865 8.87848 10.3478 8.829 10.3983L7.831 11.4163H10.5C10.6326 11.4163 10.7598 11.4778 10.8536 11.5871C10.9473 11.6965 11 11.8448 11 11.9994C11 12.1541 10.9473 12.3024 10.8536 12.4117C10.7598 12.5211 10.6326 12.5825 10.5 12.5825H7.83L8.83 13.6017C8.92985 13.7038 8.99085 13.848 8.99957 14.0025C9.00829 14.157 8.96402 14.3092 8.8765 14.4257C8.78898 14.5421 8.66537 14.6132 8.53288 14.6234C8.40039 14.6336 8.26985 14.5819 8.17 14.4799L6.17 12.4391C6.1163 12.3843 6.07325 12.3168 6.04376 12.2411C6.01427 12.1654 5.99901 12.0832 5.99901 12C5.99901 11.9168 6.01427 11.8346 6.04376 11.7589C6.07325 11.6832 6.1163 11.6157 6.17 11.5609L8.17 9.52012C8.21942 9.46961 8.2769 9.43096 8.33914 9.40638C8.40139 9.38179 8.46717 9.37176 8.53274 9.37685C8.59831 9.38194 8.66238 9.40205 8.72128 9.43604C8.78018 9.47003 8.83275 9.51722 8.876 9.57493ZM16.169 12.5837L15.171 13.6017C15.0719 13.7038 15.0115 13.8474 15.003 14.0012C14.9945 14.155 15.0385 14.3064 15.1255 14.4225C15.2124 14.5386 15.3352 14.6097 15.4671 14.6205C15.5989 14.6312 15.729 14.5807 15.829 14.4799L17.829 12.4391C17.8827 12.3843 17.9257 12.3168 17.9552 12.2411C17.9847 12.1654 18 12.0832 18 12C18 11.9168 17.9847 11.8346 17.9552 11.7589C17.9257 11.6832 17.8827 11.6157 17.829 11.5609L15.829 9.52012C15.729 9.41931 15.5989 9.36876 15.4671 9.37951C15.3352 9.39026 15.2124 9.46144 15.1255 9.5775C15.0385 9.69355 14.9945 9.84504 15.003 9.99883C15.0115 10.1526 15.0719 10.2962 15.171 10.3983L16.169 11.4163H13.5C13.3674 11.4163 13.2402 11.4778 13.1464 11.5871C13.0527 11.6965 13 11.8448 13 11.9994C13 12.1541 13.0527 12.3024 13.1464 12.4117C13.2402 12.5211 13.3674 12.5825 13.5 12.5825L16.169 12.5837ZM4 7.33236C4 6.71378 4.21071 6.12054 4.58579 5.68313C4.96086 5.24573 5.46957 5 6 5H18C18.5304 5 19.0391 5.24573 19.4142 5.68313C19.7893 6.12054 20 6.71378 20 7.33236V16.6676C20 17.2862 19.7893 17.8795 19.4142 18.3169C19.0391 18.7543 18.5304 19 18 19H6C5.46957 19 4.96086 18.7543 4.58579 18.3169C4.21071 17.8795 4 17.2862 4 16.6676V7.33236ZM6 6.16618C5.73478 6.16618 5.48043 6.28905 5.29289 6.50775C5.10536 6.72645 5 7.02307 5 7.33236V16.6676C5 16.9769 5.10536 17.2736 5.29289 17.4923C5.48043 17.711 5.73478 17.8338 6 17.8338H18C18.2652 17.8338 18.5196 17.711 18.7071 17.4923C18.8946 17.2736 19 16.9769 19 16.6676V7.33236C19 7.02307 18.8946 6.72645 18.7071 6.50775C18.5196 6.28905 18.2652 6.16618 18 6.16618H6Z"/>
</mask>
<path d="M8.876 9.57493C8.91931 9.63256 8.95245 9.69959 8.97353 9.77218C8.99461 9.84476 9.00322 9.92148 8.99885 9.99795C8.99449 10.0744 8.97724 10.1491 8.94809 10.2178C8.91895 10.2865 8.87848 10.3478 8.829 10.3983L7.831 11.4163H10.5C10.6326 11.4163 10.7598 11.4778 10.8536 11.5871C10.9473 11.6965 11 11.8448 11 11.9994C11 12.1541 10.9473 12.3024 10.8536 12.4117C10.7598 12.5211 10.6326 12.5825 10.5 12.5825H7.83L8.83 13.6017C8.92985 13.7038 8.99085 13.848 8.99957 14.0025C9.00829 14.157 8.96402 14.3092 8.8765 14.4257C8.78898 14.5421 8.66537 14.6132 8.53288 14.6234C8.40039 14.6336 8.26985 14.5819 8.17 14.4799L6.17 12.4391C6.1163 12.3843 6.07325 12.3168 6.04376 12.2411C6.01427 12.1654 5.99901 12.0832 5.99901 12C5.99901 11.9168 6.01427 11.8346 6.04376 11.7589C6.07325 11.6832 6.1163 11.6157 6.17 11.5609L8.17 9.52012C8.21942 9.46961 8.2769 9.43096 8.33914 9.40638C8.40139 9.38179 8.46717 9.37176 8.53274 9.37685C8.59831 9.38194 8.66238 9.40205 8.72128 9.43604C8.78018 9.47003 8.83275 9.51722 8.876 9.57493ZM16.169 12.5837L15.171 13.6017C15.0719 13.7038 15.0115 13.8474 15.003 14.0012C14.9945 14.155 15.0385 14.3064 15.1255 14.4225C15.2124 14.5386 15.3352 14.6097 15.4671 14.6205C15.5989 14.6312 15.729 14.5807 15.829 14.4799L17.829 12.4391C17.8827 12.3843 17.9257 12.3168 17.9552 12.2411C17.9847 12.1654 18 12.0832 18 12C18 11.9168 17.9847 11.8346 17.9552 11.7589C17.9257 11.6832 17.8827 11.6157 17.829 11.5609L15.829 9.52012C15.729 9.41931 15.5989 9.36876 15.4671 9.37951C15.3352 9.39026 15.2124 9.46144 15.1255 9.5775C15.0385 9.69355 14.9945 9.84504 15.003 9.99883C15.0115 10.1526 15.0719 10.2962 15.171 10.3983L16.169 11.4163H13.5C13.3674 11.4163 13.2402 11.4778 13.1464 11.5871C13.0527 11.6965 13 11.8448 13 11.9994C13 12.1541 13.0527 12.3024 13.1464 12.4117C13.2402 12.5211 13.3674 12.5825 13.5 12.5825L16.169 12.5837ZM4 7.33236C4 6.71378 4.21071 6.12054 4.58579 5.68313C4.96086 5.24573 5.46957 5 6 5H18C18.5304 5 19.0391 5.24573 19.4142 5.68313C19.7893 6.12054 20 6.71378 20 7.33236V16.6676C20 17.2862 19.7893 17.8795 19.4142 18.3169C19.0391 18.7543 18.5304 19 18 19H6C5.46957 19 4.96086 18.7543 4.58579 18.3169C4.21071 17.8795 4 17.2862 4 16.6676V7.33236ZM6 6.16618C5.73478 6.16618 5.48043 6.28905 5.29289 6.50775C5.10536 6.72645 5 7.02307 5 7.33236V16.6676C5 16.9769 5.10536 17.2736 5.29289 17.4923C5.48043 17.711 5.73478 17.8338 6 17.8338H18C18.2652 17.8338 18.5196 17.711 18.7071 17.4923C18.8946 17.2736 19 16.9769 19 16.6676V7.33236C19 7.02307 18.8946 6.72645 18.7071 6.50775C18.5196 6.28905 18.2652 6.16618 18 6.16618H6Z" fill="#506479"/>
<path d="M8.876 9.57493L8.0758 10.1747L8.07655 10.1757L8.876 9.57493ZM8.829 10.3983L8.11518 9.69792L8.11489 9.69822L8.829 10.3983ZM7.831 11.4163L7.11689 10.7163L5.45038 12.4163H7.831V11.4163ZM7.83 12.5825V11.5825H5.44795L7.11619 13.2828L7.83 12.5825ZM8.83 13.6017L9.54481 12.9024L9.54381 12.9014L8.83 13.6017ZM8.17 14.4799L8.88481 13.7806L8.88421 13.78L8.17 14.4799ZM6.17 12.4391L6.88421 11.7391L6.88376 11.7387L6.17 12.4391ZM5.99901 12H4.99901H5.99901ZM6.17 11.5609L6.88376 12.2613L6.88421 12.2609L6.17 11.5609ZM8.17 9.52012L8.88421 10.22L8.88473 10.2195L8.17 9.52012ZM16.169 12.5837L16.8831 13.2837L18.5486 11.5847L16.1694 11.5837L16.169 12.5837ZM15.171 13.6017L14.4569 12.9017L14.4536 12.9051L15.171 13.6017ZM15.829 14.4799L16.5391 15.184L16.5432 15.1798L15.829 14.4799ZM17.829 12.4391L17.1152 11.7387L17.1148 11.7391L17.829 12.4391ZM17.829 11.5609L17.1148 12.2609L17.1152 12.2613L17.829 11.5609ZM15.829 9.52012L16.5432 8.82018L16.5391 8.81598L15.829 9.52012ZM15.171 10.3983L14.4536 11.0949L14.4569 11.0983L15.171 10.3983ZM16.169 11.4163V12.4163H18.5496L16.8831 10.7163L16.169 11.4163ZM13.5 12.5825L13.5004 11.5825H13.5V12.5825ZM6 5V4V5ZM4 16.6676H3H4ZM5 7.33236H4H5ZM5 16.6676H4H5ZM8.07655 10.1757C8.04374 10.132 8.0242 10.0889 8.01321 10.0511L9.93386 9.49329C9.88071 9.31027 9.79488 9.13313 9.67545 8.97419L8.07655 10.1757ZM8.01321 10.0511C8.00221 10.0132 7.99846 9.97627 8.00048 9.94096L9.99723 10.0549C10.008 9.8667 9.98701 9.67633 9.93386 9.49329L8.01321 10.0511ZM8.00048 9.94096C8.00249 9.90567 8.01055 9.86724 8.02753 9.82722L9.86865 10.6084C9.94393 10.431 9.98648 10.2432 9.99723 10.0549L8.00048 9.94096ZM8.02753 9.82722C8.04453 9.78717 8.07212 9.74181 8.11518 9.69792L9.54282 11.0986C9.68484 10.9538 9.79337 10.7858 9.86865 10.6084L8.02753 9.82722ZM8.11489 9.69822L7.11689 10.7163L8.54511 12.1164L9.54311 11.0983L8.11489 9.69822ZM7.831 12.4163H10.5V10.4163H7.831V12.4163ZM10.5 12.4163C10.3134 12.4163 10.1721 12.3286 10.0944 12.2381L11.6127 10.9362C11.3475 10.6269 10.9518 10.4163 10.5 10.4163V12.4163ZM10.0944 12.2381C10.0208 12.1522 10 12.0646 10 11.9994H12C12 11.625 11.8738 11.2407 11.6127 10.9362L10.0944 12.2381ZM10 11.9994C10 11.9343 10.0208 11.8466 10.0944 11.7608L11.6127 13.0627C11.8738 12.7581 12 12.3738 12 11.9994H10ZM10.0944 11.7608C10.1721 11.6702 10.3134 11.5825 10.5 11.5825V13.5825C10.9518 13.5825 11.3475 13.372 11.6127 13.0627L10.0944 11.7608ZM10.5 11.5825H7.83V13.5825H10.5V11.5825ZM7.11619 13.2828L8.11619 14.3021L9.54381 12.9014L8.54381 11.8822L7.11619 13.2828ZM8.11519 14.3011C8.0311 14.2151 8.00484 14.124 8.00116 14.0588L9.99798 13.9461C9.97686 13.5719 9.82861 13.1925 9.54481 12.9024L8.11519 14.3011ZM8.00116 14.0588C7.99748 13.9936 8.01352 13.9094 8.07711 13.8248L9.67589 15.0265C9.91452 14.709 10.0191 14.3204 9.99798 13.9461L8.00116 14.0588ZM8.07711 13.8248C8.14369 13.7363 8.27253 13.6404 8.45635 13.6263L8.60941 15.6205C9.05822 15.586 9.43427 15.3479 9.67589 15.0265L8.07711 13.8248ZM8.45635 13.6263C8.64282 13.612 8.79543 13.6892 8.88481 13.7806L7.45519 15.1792C7.74428 15.4747 8.15795 15.6551 8.60941 15.6205L8.45635 13.6263ZM8.88421 13.78L6.88421 11.7391L5.45579 13.139L7.45579 15.1798L8.88421 13.78ZM6.88376 11.7387C6.93043 11.7862 6.95896 11.8355 6.97559 11.8782L5.11193 12.604C5.18754 12.7982 5.30216 12.9824 5.45624 13.1395L6.88376 11.7387ZM6.97559 11.8782C6.99222 11.9209 6.99901 11.962 6.99901 12H4.99901C4.99901 12.2044 5.03632 12.4099 5.11193 12.604L6.97559 11.8782ZM6.99901 12C6.99901 12.038 6.99222 12.0791 6.97559 12.1218L5.11193 11.396C5.03632 11.5901 4.99901 11.7956 4.99901 12H6.99901ZM6.97559 12.1218C6.95896 12.1645 6.93043 12.2138 6.88376 12.2613L5.45624 10.8605C5.30216 11.0176 5.18754 11.2018 5.11193 11.396L6.97559 12.1218ZM6.88421 12.2609L8.88421 10.22L7.45579 8.82019L5.45579 10.861L6.88421 12.2609ZM8.88473 10.2195C8.84147 10.2637 8.78222 10.3065 8.70648 10.3365L7.9718 8.47629C7.77158 8.55537 7.59738 8.67549 7.45527 8.82072L8.88473 10.2195ZM8.70648 10.3365C8.63005 10.3667 8.5439 10.3807 8.45534 10.3739L8.61015 8.37985C8.39044 8.36279 8.17272 8.39694 7.9718 8.47629L8.70648 10.3365ZM8.45534 10.3739C8.36699 10.367 8.28732 10.3402 8.22147 10.3022L9.22108 8.5699C9.03743 8.46393 8.82964 8.39689 8.61015 8.37985L8.45534 10.3739ZM8.22147 10.3022C8.15628 10.2646 8.10867 10.2185 8.0758 10.1747L9.6762 8.97519C9.55684 8.81593 9.40407 8.6755 9.22108 8.5699L8.22147 10.3022ZM15.4549 11.8836L14.4569 12.9017L15.8851 14.3018L16.8831 13.2837L15.4549 11.8836ZM14.4536 12.9051C14.1721 13.1949 14.0252 13.573 14.0045 13.9458L16.0015 14.0566C15.9978 14.1218 15.9718 14.2126 15.8884 14.2984L14.4536 12.9051ZM14.0045 13.9458C13.9838 14.3186 14.088 14.7056 14.3252 15.0222L15.9257 13.8229C15.989 13.9073 16.0051 13.9913 16.0015 14.0566L14.0045 13.9458ZM14.3252 15.0222C14.5653 15.3426 14.939 15.5807 15.3858 15.6172L15.5484 13.6238C15.7315 13.6387 15.8595 13.7345 15.9257 13.8229L14.3252 15.0222ZM15.3858 15.6172C15.8353 15.6538 16.2487 15.4768 16.5391 15.184L15.1189 13.7757C15.2094 13.6846 15.3625 13.6086 15.5484 13.6238L15.3858 15.6172ZM16.5432 15.1798L18.5432 13.139L17.1148 11.7391L15.1148 13.78L16.5432 15.1798ZM18.5428 13.1395C18.6968 12.9824 18.8115 12.7982 18.8871 12.604L17.0234 11.8782C17.04 11.8355 17.0686 11.7862 17.1152 11.7387L18.5428 13.1395ZM18.8871 12.604C18.9627 12.4099 19 12.2044 19 12H17C17 11.962 17.0068 11.9209 17.0234 11.8782L18.8871 12.604ZM19 12C19 11.7956 18.9627 11.5901 18.8871 11.396L17.0234 12.1218C17.0068 12.0791 17 12.038 17 12H19ZM18.8871 11.396C18.8115 11.2018 18.6968 11.0176 18.5428 10.8605L17.1152 12.2613C17.0686 12.2138 17.04 12.1645 17.0234 12.1218L18.8871 11.396ZM18.5432 10.861L16.5432 8.82019L15.1148 10.22L17.1148 12.2609L18.5432 10.861ZM16.5391 8.81598C16.2487 8.52318 15.8353 8.34615 15.3858 8.38282L15.5484 10.3762C15.3625 10.3914 15.2094 10.3154 15.1189 10.2243L16.5391 8.81598ZM15.3858 8.38282C14.939 8.41926 14.5653 8.65737 14.3252 8.97785L15.9257 10.1771C15.8595 10.2655 15.7315 10.3613 15.5484 10.3762L15.3858 8.38282ZM14.3252 8.97785C14.088 9.29443 13.9838 9.68137 14.0045 10.0542L16.0015 9.94342C16.0051 10.0087 15.989 10.0927 15.9257 10.1771L14.3252 8.97785ZM14.0045 10.0542C14.0252 10.427 14.1721 10.805 14.4536 11.0949L15.8884 9.7016C15.9718 9.78742 15.9978 9.87824 16.0015 9.94342L14.0045 10.0542ZM14.4569 11.0983L15.4549 12.1164L16.8831 10.7163L15.8851 9.69822L14.4569 11.0983ZM16.169 10.4163H13.5V12.4163H16.169V10.4163ZM13.5 10.4163C13.0482 10.4163 12.6525 10.6269 12.3873 10.9362L13.9056 12.2381C13.8279 12.3286 13.6866 12.4163 13.5 12.4163V10.4163ZM12.3873 10.9362C12.1262 11.2407 12 11.625 12 11.9994H14C14 12.0646 13.9792 12.1522 13.9056 12.2381L12.3873 10.9362ZM12 11.9994C12 12.3738 12.1262 12.7581 12.3873 13.0627L13.9056 11.7608C13.9792 11.8466 14 11.9343 14 11.9994H12ZM12.3873 13.0627C12.6525 13.372 13.0482 13.5825 13.5 13.5825V11.5825C13.6866 11.5825 13.8279 11.6702 13.9056 11.7608L12.3873 13.0627ZM13.4996 13.5825L16.1686 13.5837L16.1694 11.5837L13.5004 11.5825L13.4996 13.5825ZM5 7.33236C5 6.93357 5.1372 6.5763 5.34491 6.33408L3.82666 5.03219C3.28422 5.66477 3 6.49399 3 7.33236H5ZM5.34491 6.33408C5.54854 6.09661 5.78874 6 6 6V4C5.15039 4 4.37318 4.39485 3.82666 5.03219L5.34491 6.33408ZM6 6H18V4H6V6ZM18 6C18.2113 6 18.4515 6.09661 18.6551 6.33408L20.1733 5.03219C19.6268 4.39485 18.8496 4 18 4V6ZM18.6551 6.33408C18.8628 6.5763 19 6.93357 19 7.33236H21C21 6.49399 20.7158 5.66477 20.1733 5.03219L18.6551 6.33408ZM19 7.33236V16.6676H21V7.33236H19ZM19 16.6676C19 17.0664 18.8628 17.4237 18.6551 17.6659L20.1733 18.9678C20.7158 18.3352 21 17.506 21 16.6676H19ZM18.6551 17.6659C18.4515 17.9034 18.2113 18 18 18V20C18.8496 20 19.6268 19.6052 20.1733 18.9678L18.6551 17.6659ZM18 18H6V20H18V18ZM6 18C5.78874 18 5.54854 17.9034 5.34491 17.6659L3.82666 18.9678C4.37318 19.6052 5.15039 20 6 20V18ZM5.34491 17.6659C5.1372 17.4237 5 17.0664 5 16.6676H3C3 17.506 3.28422 18.3352 3.82666 18.9678L5.34491 17.6659ZM5 16.6676V7.33236H3V16.6676H5ZM6 5.16618C5.41561 5.16618 4.89275 5.43816 4.53377 5.8568L6.05202 7.15869C6.06054 7.14876 6.06221 7.1506 6.05228 7.1554C6.04182 7.16045 6.02348 7.16618 6 7.16618V5.16618ZM4.53377 5.8568C4.17887 6.27068 4 6.80328 4 7.33236H6C6 7.24286 6.03185 7.18222 6.05202 7.15869L4.53377 5.8568ZM4 7.33236V16.6676H6V7.33236H4ZM4 16.6676C4 17.1967 4.17887 17.7293 4.53377 18.1432L6.05202 16.8413C6.03185 16.8178 6 16.7571 6 16.6676H4ZM4.53377 18.1432C4.89275 18.5618 5.41561 18.8338 6 18.8338V16.8338C6.02348 16.8338 6.04182 16.8395 6.05228 16.8446C6.06221 16.8494 6.06054 16.8512 6.05202 16.8413L4.53377 18.1432ZM6 18.8338H18V16.8338H6V18.8338ZM18 18.8338C18.5844 18.8338 19.1072 18.5618 19.4662 18.1432L17.948 16.8413C17.9395 16.8512 17.9378 16.8494 17.9477 16.8446C17.9582 16.8395 17.9765 16.8338 18 16.8338V18.8338ZM19.4662 18.1432C19.8211 17.7293 20 17.1967 20 16.6676H18C18 16.7571 17.9682 16.8178 17.948 16.8413L19.4662 18.1432ZM20 16.6676V7.33236H18V16.6676H20ZM20 7.33236C20 6.80328 19.8211 6.27068 19.4662 5.8568L17.948 7.15869C17.9682 7.18221 18 7.24286 18 7.33236H20ZM19.4662 5.8568C19.1072 5.43816 18.5844 5.16618 18 5.16618V7.16618C17.9765 7.16618 17.9582 7.16045 17.9477 7.1554C17.9378 7.1506 17.9395 7.14876 17.948 7.15869L19.4662 5.8568ZM18 5.16618H6V7.16618H18V5.16618Z" fill="#506479" mask="url(#path-1-inside-1_958_11061)"/>
</g>
</g>
</svg>
