<svg width="16" height="16" viewBox="0 0 16 16" fill="none" xmlns="http://www.w3.org/2000/svg">
<g id="Outline/Scale-height" clip-path="url(#clip0_860_1303)">
<path id="Vector" d="M5.57493 11.124C5.63256 11.0807 5.69959 11.0475 5.77218 11.0265C5.84476 11.0054 5.92148 10.9968 5.99795 11.0011C6.07442 11.0055 6.14913 11.0228 6.21782 11.0519C6.2865 11.0811 6.34782 11.1215 6.39825 11.171L7.41633 12.169L7.41633 9.5C7.41633 9.36739 7.47776 9.24021 7.58711 9.14645C7.69646 9.05268 7.84477 9 7.99942 9C8.15406 9 8.30237 9.05268 8.41172 9.14645C8.52107 9.24021 8.58251 9.36739 8.58251 9.5L8.58251 12.17L9.60175 11.17C9.70381 11.0701 9.84796 11.0091 10.0025 11.0004C10.157 10.9917 10.3092 11.036 10.4257 11.1235C10.5421 11.211 10.6132 11.3346 10.6234 11.4671C10.6336 11.5996 10.5819 11.7301 10.4799 11.83L8.43907 13.83C8.38434 13.8837 8.31684 13.9267 8.24111 13.9562C8.16538 13.9857 8.08317 14.001 8 14.001C7.91683 14.001 7.83462 13.9857 7.75889 13.9562C7.68316 13.9267 7.61566 13.8837 7.56093 13.83L5.52012 11.83C5.46961 11.7806 5.43096 11.7231 5.40638 11.6609C5.38179 11.5986 5.37176 11.5328 5.37685 11.4673C5.38194 11.4017 5.40205 11.3376 5.43604 11.2787C5.47003 11.2198 5.51722 11.1672 5.57493 11.124ZM8.58367 3.831L9.60175 4.829C9.70376 4.92806 9.84736 4.98846 10.0012 4.997C10.155 5.00553 10.3064 4.96151 10.4225 4.87455C10.5386 4.78759 10.6097 4.66476 10.6205 4.53293C10.6312 4.40109 10.5807 4.27097 10.4799 4.171L8.43907 2.171C8.38434 2.11729 8.31684 2.07425 8.24111 2.04476C8.16538 2.01527 8.08317 2.00001 8 2.00001C7.91683 2.00001 7.83461 2.01527 7.75889 2.04476C7.68316 2.07425 7.61566 2.11729 7.56093 2.171L5.52012 4.171C5.41931 4.27097 5.36875 4.40109 5.37951 4.53293C5.39026 4.66476 5.46144 4.78759 5.5775 4.87455C5.69355 4.96151 5.84504 5.00553 5.99883 4.997C6.15263 4.98846 6.29624 4.92806 6.39825 4.829L7.41633 3.831L7.41633 6.5C7.41633 6.63261 7.47776 6.75979 7.58711 6.85355C7.69646 6.94732 7.84477 7 7.99942 7C8.15406 7 8.30237 6.94732 8.41172 6.85355C8.52107 6.75979 8.58251 6.63261 8.58251 6.5L8.58367 3.831ZM3.33236 16C2.71378 16 2.12054 15.7893 1.68313 15.4142C1.24573 15.0391 1 14.5304 1 14L0.999999 2C0.999999 1.46957 1.24573 0.960859 1.68313 0.585787C2.12053 0.210714 2.71378 -7.49117e-08 3.33236 -1.01951e-07L12.6676 -5.10009e-07C13.2862 -5.37048e-07 13.8795 0.210714 14.3169 0.585786C14.7543 0.960859 15 1.46957 15 2L15 14C15 14.5304 14.7543 15.0391 14.3169 15.4142C13.8795 15.7893 13.2862 16 12.6676 16L3.33236 16ZM2.16618 14C2.16618 14.2652 2.28905 14.5196 2.50775 14.7071C2.72645 14.8946 3.02307 15 3.33236 15L12.6676 15C12.9769 15 13.2736 14.8946 13.4923 14.7071C13.711 14.5196 13.8338 14.2652 13.8338 14L13.8338 2C13.8338 1.73478 13.711 1.48043 13.4923 1.29289C13.2736 1.10536 12.9769 0.999999 12.6676 0.999999L3.33236 1C3.02307 1 2.72645 1.10536 2.50775 1.29289C2.28905 1.48043 2.16618 1.73478 2.16618 2L2.16618 14Z" fill="white"/>
</g>
<defs>
<clipPath id="clip0_860_1303">
<rect width="16" height="16" fill="white"/>
</clipPath>
</defs>
</svg>
