<svg width="20" height="20" viewBox="0 0 20 20" fill="none" xmlns="http://www.w3.org/2000/svg">
<g id="icon">
<g id="Group">
<path id="Vector" d="M8.04297 11.5L9.38464 12.5417C9.55964 12.7167 9.95131 12.7999 10.2096 12.7999H11.8596C12.3763 12.7999 12.943 12.4083 13.0763 11.8916L14.118 8.73326C14.3346 8.12493 13.943 7.60828 13.293 7.60828H11.5596C11.3013 7.60828 11.0846 7.39162 11.1263 7.09162L11.343 5.70826C11.4263 5.31659 11.168 4.88324 10.7763 4.75824C10.4263 4.62491 9.99297 4.7999 9.8263 5.05823L8.05131 7.69993" stroke="#506479" stroke-width="1.5" stroke-miterlimit="10"/>
<path id="Vector_2" d="M5.83398 11.5001V7.25834C5.83398 6.65001 6.09231 6.43335 6.70065 6.43335H7.13398C7.74232 6.43335 8.00066 6.65001 8.00066 7.25834V11.5001C8.00066 12.1084 7.74232 12.3251 7.13398 12.3251H6.70065C6.09231 12.3251 5.83398 12.1084 5.83398 11.5001Z" stroke="#506479" stroke-width="1.5" stroke-linecap="round" stroke-linejoin="round"/>
</g>
<path id="Vector_3" d="M15 15.7167H14.3667C13.7 15.7167 13.0667 15.975 12.6 16.4417L11.175 17.8501C10.525 18.4917 9.46667 18.4917 8.81667 17.8501L7.39166 16.4417C6.925 15.975 6.28333 15.7167 5.625 15.7167H5C3.61667 15.7167 2.5 14.6084 2.5 13.2417V4.15002C2.5 2.78336 3.61667 1.67505 5 1.67505H15C16.3833 1.67505 17.5 2.78336 17.5 4.15002V13.2417C17.5 14.6001 16.3833 15.7167 15 15.7167Z" stroke="#506479" stroke-width="1.5" stroke-miterlimit="10" stroke-linecap="round" stroke-linejoin="round"/>
</g>
</svg>
