<svg width="20" height="20" viewBox="0 0 20 20" fill="none" xmlns="http://www.w3.org/2000/svg">
<path d="M12.4993 18.9584H7.49935C2.97435 18.9584 1.04102 17.0251 1.04102 12.5001V7.50008C1.04102 2.97508 2.97435 1.04175 7.49935 1.04175H12.4993C17.0243 1.04175 18.9577 2.97508 18.9577 7.50008V12.5001C18.9577 17.0251 17.0243 18.9584 12.4993 18.9584ZM7.49935 2.29175C3.65768 2.29175 2.29102 3.65841 2.29102 7.50008V12.5001C2.29102 16.3417 3.65768 17.7084 7.49935 17.7084H12.4993C16.341 17.7084 17.7077 16.3417 17.7077 12.5001V7.50008C17.7077 3.65841 16.341 2.29175 12.4993 2.29175H7.49935Z" fill="#506479"/>
<path d="M8.96589 13.6417C8.61589 13.6417 8.29089 13.5584 7.99922 13.3917C7.33255 13.0084 6.94922 12.2251 6.94922 11.2334V8.76675C6.94922 7.78342 7.33255 6.99175 7.99922 6.60841C8.66589 6.22508 9.53255 6.28342 10.3909 6.78342L12.5326 8.01675C13.3826 8.50841 13.8742 9.23341 13.8742 10.0001C13.8742 10.7667 13.3826 11.4917 12.5326 11.9834L10.3909 13.2167C9.90755 13.5001 9.41589 13.6417 8.96589 13.6417ZM8.97422 7.60841C8.84089 7.60841 8.72422 7.63341 8.63255 7.69175C8.36589 7.85008 8.20755 8.24175 8.20755 8.76675V11.2334C8.20755 11.7584 8.35755 12.1501 8.63255 12.3084C8.89922 12.4667 9.31589 12.4001 9.77422 12.1334L11.9159 10.9001C12.3742 10.6334 12.6326 10.3084 12.6326 10.0001C12.6326 9.69175 12.3742 9.35841 11.9159 9.10008L9.77422 7.86675C9.47422 7.69175 9.19922 7.60841 8.97422 7.60841Z" fill="#506479"/>
</svg>
